<!DOCTYPE svg PUBLIC "-//W3C//DTD SVG 1.1//EN" "http://www.w3.org/Graphics/SVG/1.1/DTD/svg11.dtd">
<!-- Uploaded to: SVG Repo, www.svgrepo.com, Transformed by: SVG Repo Mixer Tools -->
<svg fill="#cc0000" version="1.1" id="Capa_1" xmlns="http://www.w3.org/2000/svg" xmlns:xlink="http://www.w3.org/1999/xlink" width="800px" height="800px" viewBox="0 0 24.678 24.678" xml:space="preserve" stroke="#cc0000">
<g id="SVGRepo_bgCarrier" stroke-width="0"/>
<g id="SVGRepo_tracerCarrier" stroke-linecap="round" stroke-linejoin="round"/>
<g id="SVGRepo_iconCarrier"> <g> <g> <polygon points="6.576,12.191 2.568,13.666 6.589,6.696 1.849,6.312 1.849,23.1 11.913,24.678 11.913,8.414 7.305,16.402 "/> <polygon points="22.109,13.666 18.102,12.191 17.373,16.402 12.764,8.414 12.764,24.678 22.83,23.1 22.83,6.312 18.089,6.696 "/> <path d="M4.875,4.535V2.063H3.692H2.87H2.293c-0.55,0-1,0.45-1,1v0.699v0.7v1l4.062,0.312C5.023,5.385,4.875,4.942,4.875,4.535z"/> <polygon points="7.966,12.683 11.841,5.967 8.494,5.967 5.455,11.234 7.579,10.452 "/> <polygon points="16.712,12.683 17.099,10.452 19.223,11.234 16.184,5.967 12.837,5.967 "/> <path d="M18.518,4.535v-3.45c0-0.424-0.516-1.217-2.236-1.037c-1.699,0.178-3.942,2.073-3.942,2.073S10.084,0.3,8.398,0.048 C6.634-0.215,6.162,0.661,6.162,1.085v3.45c0,0.422,0.53,1.036,2.236,1.036c1.704,0,3.941,0,3.941,0s2.233,0,3.94,0 S18.518,4.957,18.518,4.535z M8.398,2.121c-1.231,0-1.67-0.365-1.67-0.678c0-0.312,0.441-0.834,1.67-0.677 c0.779,0.099,1.945,0.697,2.802,1.355H8.398z M12.339,4.638c-0.438,0-0.792-0.356-0.792-0.793c0-0.438,0.354-0.793,0.792-0.793 s0.793,0.355,0.793,0.793S12.777,4.638,12.339,4.638z M16.279,0.765c1.25-0.177,1.67,0.365,1.67,0.677 c0,0.313-0.438,0.678-1.67,0.678h-2.803C14.333,1.462,15.499,0.876,16.279,0.765z"/> <path d="M22.385,2.063h-0.796h-0.604h-1.183v2.472c0,0.407-0.147,0.85-0.479,1.24l4.062-0.312v-1v-0.7V3.064 C23.385,2.513,22.936,2.063,22.385,2.063z"/> </g> </g> </g>
</svg>